<?xml version="1.0" standalone="no"?><!DOCTYPE svg PUBLIC "-//W3C//DTD SVG 1.1//EN" "http://www.w3.org/Graphics/SVG/1.1/DTD/svg11.dtd"><svg t="1723692470226" class="icon" viewBox="0 0 1024 1024" version="1.1" xmlns="http://www.w3.org/2000/svg" p-id="11138" width="32" height="32" xmlns:xlink="http://www.w3.org/1999/xlink"><path d="M720.1 676.6c76.9-76.9 129.7-164.2 154.3-245.1C789 417.7 652.6 459.9 521.6 548c-39.2 26.4-74.7 54.7-105.6 83.6 28.9-30.9 57.2-66.4 83.6-105.6 88.1-131 130.3-267.4 116.5-352.8-80.9 24.5-168.2 77.4-245.1 154.3-145.9 145.7-205.2 328.8-148.6 435.3 10 19.6 14.9 24.5 26.3 35.9 5.5 5.5 16.4 16.4 35.9 26.3 106.6 56.7 289.6-2.6 435.5-148.4z" fill="#FBF6CE" p-id="11139"></path><path d="M333.7 776c-19.6-10-30.5-20.9-35.9-26.3-11.4-11.4-16.4-16.4-26.3-35.9-53.4-100.4-3.7-268.9 124.5-410.1-8.4 7.7-16.8 15.6-25 23.8-145.9 145.7-205.2 328.8-148.6 435.3 10 19.6 14.9 24.5 26.3 35.9 5.5 5.5 16.4 16.4 35.9 26.3 106.5 56.6 289.6-2.7 435.4-148.5 8.2-8.2 16.1-16.6 23.8-25C602.7 779.7 434.2 829.4 333.7 776z" fill="#EDDDB2" p-id="11140"></path><path d="M464.2 392.3c-65.5 144.1-84.6 275.5-84.6 275.5s127.6-20.3 281-90c120-54.6 191.9-125.4 212.3-142 0.5-1.5 1-2.9 1.4-4.4-85.4-13.8-221.8 28.4-352.8 116.5-39.2 26.4-74.7 54.7-105.6 83.6 28.9-30.9 57.2-66.4 83.6-105.6 88.1-131 130.3-267.4 116.5-352.8-1.4 0.4-2.8 0.9-4.2 1.4-15.9 20.3-93.1 97.8-147.6 217.8z" fill="#CCA35C" p-id="11141"></path><path d="M242.1 805.3c-11.6-11.6-17.4-17.4-28-38.3-59.5-111.9 3.7-299.7 150.3-446.2 75.1-75.1 163.5-130.7 249-156.6l10.2-3.1 1.7 10.5c14.6 90.1-31.7 231.2-117.9 359.4-7 10.5-14.2 20.7-21.6 30.7 10-7.4 20.3-14.6 30.7-21.6C644.6 454 785.7 407.7 875.8 422.3l10.5 1.7-3.1 10.2c-25.9 85.5-81.5 173.9-156.6 249-146.5 146.5-334.2 209.6-446.3 150.1-20.8-10.6-32.5-22.3-38.2-28z m366.1-619.9c-79.3 26.3-160.9 78.7-230.8 148.6-140.8 140.9-202.6 319.4-146.8 424.5 9.4 18.4 13.5 22.6 24.7 33.7 5.4 5.4 15.3 15.3 33.6 24.6C394 872.7 572.6 810.9 713.5 670c69.9-69.9 122.3-151.4 148.6-230.7-86-8.7-215.9 36.1-335.4 116.4-38 25.5-73.1 53.3-104.5 82.7l-13.1-13.1c29.3-31.4 57.2-66.5 82.7-104.5C572.2 401.3 617 271.4 608.2 185.4z" fill="#EDDDB2" p-id="11142"></path><path d="M794.8 426.5c37.2-72.9 41.8-141.9 4.9-178.8-36.8-36.8-105.9-32.3-178.8 4.9-28.5 14.5-57.5 34.1-85.5 58.1-13.4 22.4-27 47.8-39.6 76.3-55.7 125.5-78 242.6-78 242.6s109-18.7 242.6-78c28.3-12.6 53.7-26.1 76-39.3 24.2-28.1 43.8-57.2 58.4-85.8z" fill="#92B242" p-id="11143"></path><path d="M747.9 498.4c10.3-15.2 19.2-30.4 26.7-45.6 36.6-73.6 32.3-136-5.9-174.2-38.1-38.1-100.6-42.5-174.2-5.9-15.1 7.5-30.3 16.4-45.5 26.7 23.7-18.9 48-34.6 71.8-46.8 72.9-37.3 142-41.8 178.8-5 36.9 36.9 32.3 105.9-5 178.8-12 24-27.8 48.3-46.7 72z" fill="#B2CC56" p-id="11144"></path><path d="M457.9 597.5c-1.3-1.3-2.6-2.6-3.9-4-1.3-1.3-2.7-2.6-4-3.9-14.8-14.2-30.4-25.6-45.5-33.8-19 65.4-25 112.2-25 112.2s45-6.5 111.3-26.5c-8-14.6-19.2-29.7-32.9-44z" fill="#ED927A" p-id="11145"></path></svg>