<?xml version="1.0" standalone="no"?><!DOCTYPE svg PUBLIC "-//W3C//DTD SVG 1.1//EN" "http://www.w3.org/Graphics/SVG/1.1/DTD/svg11.dtd"><svg t="1723694989127" class="icon" viewBox="0 0 1024 1024" version="1.1" xmlns="http://www.w3.org/2000/svg" p-id="12471" width="16" height="16" xmlns:xlink="http://www.w3.org/1999/xlink"><path d="M396.3392 454.1952c0-16.0768-13.056-29.1328-29.1328-29.1328-16.0768 0-29.1328 13.056-29.1328 29.1328 0 15.7184 12.4928 28.4672 28.1088 29.0304 0.4608 0 0.9216 0.0512 1.3824 0.0512 15.872-0.1536 28.7744-13.1072 28.7744-29.0816zM679.3728 452.9664c0-16.0768-13.056-29.1328-29.1328-29.1328-16.0768 0-29.1328 13.056-29.1328 29.1328 0 15.7184 12.4928 28.4672 28.1088 29.0304 0.4608 0 0.9216 0.0512 1.3824 0.0512a29.06112 29.06112 0 0 0 28.7744-29.0816z" fill="#F7931E" p-id="12472"></path><path d="M1004.544 447.6416c31.488-30.6688 14.08-84.1216-29.3888-90.4192l-259.6352-37.7344c-17.2544-2.5088-32.2048-13.3632-39.936-28.9792l-116.1216-235.264c-19.456-39.424-75.6224-39.424-95.0784 0L348.3648 290.4576a52.92032 52.92032 0 0 1-39.936 28.9792l-259.584 37.7856C5.3248 363.52-12.032 416.9728 19.456 447.6416l187.8528 183.1424c12.4928 12.1856 18.176 29.7472 15.2576 46.8992l-44.3392 258.56c-7.424 43.3152 38.0416 76.3392 76.9024 55.9104l232.192-122.0608c15.4624-8.1408 33.8944-8.1408 49.3568 0l232.192 122.0608c38.912 20.4288 84.3264-12.5952 76.9024-55.9104l-44.3392-258.56c-2.9696-17.2032 2.7648-34.7648 15.2576-46.8992l187.8528-183.1424z m-353.28-82.0736c32.2048 0 58.2656 26.112 58.2656 58.2656 0 32.2048-26.112 58.2656-58.2656 58.2656-0.2048 0-0.4608-0.0512-0.6656-0.0512-0.1024 0-0.2048 0.0512-0.3584 0.0512-0.3584 0-0.6656-0.1024-1.024-0.1024-31.232-1.0752-56.2176-26.6752-56.2176-58.1632 0-32.1536 26.0608-58.2656 58.2656-58.2656z m-283.0848 1.2288c32.2048 0 58.2656 26.112 58.2656 58.2656 0 32.2048-26.112 58.2656-58.2656 58.2656-0.2048 0-0.4608-0.0512-0.6656-0.0512-0.1024 0-0.2048 0.0512-0.3584 0.0512-0.3584 0-0.6656-0.1024-1.024-0.1024-31.232-1.0752-56.2176-26.6752-56.2176-58.1632 0-32.2048 26.112-58.2656 58.2656-58.2656zM512 809.7792c-110.336 0-199.8336-89.4464-199.8336-199.8336h399.616c0.0512 110.336-89.4464 199.8336-199.7824 199.8336z" fill="#F7931E" p-id="12473"></path></svg>