<?xml version="1.0" standalone="no"?>
<!DOCTYPE svg PUBLIC "-//W3C//DTD SVG 20010904//EN"
 "http://www.w3.org/TR/2001/REC-SVG-20010904/DTD/svg10.dtd">
<svg version="1.0" xmlns="http://www.w3.org/2000/svg"
 width="700.000000pt" height="700.000000pt" viewBox="0 0 700.000000 700.000000"
 preserveAspectRatio="xMidYMid meet">
<metadata>
Created by potrace 1.14, written by Peter Selinger 2001-2017
</metadata>
<g transform="translate(0.000000,700.000000) scale(0.100000,-0.100000)"
fill="#000000" stroke="none">
<path d="M3278 6995 c-1 -1 -42 -5 -89 -9 -47 -4 -95 -8 -105 -10 -10 -2 -41
-7 -69 -10 -48 -6 -132 -21 -185 -31 -14 -3 -38 -8 -55 -11 -141 -25 -437
-117 -615 -191 -180 -74 -402 -192 -570 -302 -95 -62 -312 -221 -330 -242 -3
-3 -41 -37 -85 -76 -271 -237 -524 -548 -707 -868 -168 -294 -297 -611 -364
-895 -50 -214 -73 -351 -91 -550 -15 -168 -9 -571 12 -714 3 -17 7 -49 9 -71
10 -83 18 -131 26 -165 5 -19 12 -48 14 -65 27 -149 109 -419 184 -605 39 -97
131 -288 178 -370 20 -36 45 -81 56 -100 127 -222 355 -509 572 -719 80 -78
117 -111 226 -205 32 -28 201 -152 260 -191 25 -16 47 -32 50 -35 3 -3 17 -12
32 -20 14 -8 77 -44 140 -80 275 -159 547 -269 863 -350 133 -35 259 -60 374
-76 25 -3 57 -8 71 -10 163 -25 682 -25 842 1 13 2 46 7 73 10 72 10 86 12
120 19 17 3 44 8 60 11 74 14 178 39 275 67 1113 316 1995 1156 2367 2253 24
72 53 166 64 210 20 78 23 90 34 138 14 60 55 299 60 352 4 33 9 71 11 85 9
47 11 525 4 605 -15 157 -21 210 -25 225 -2 8 -7 35 -10 60 -15 117 -78 375
-125 520 -131 397 -329 765 -589 1095 -30 39 -57 72 -60 75 -4 3 -35 38 -71
79 -386 440 -937 804 -1501 991 -172 56 -425 119 -549 135 -19 3 -46 7 -60 10
-13 2 -52 7 -86 11 -33 3 -74 8 -90 10 -33 5 -540 14 -546 9z m2387 -2110 c93
-13 198 -92 245 -185 27 -54 43 -137 37 -191 -15 -124 47 -57 -1326 -1431
-1145 -1145 -1272 -1269 -1326 -1294 -108 -50 -236 -40 -339 28 -19 12 -360
349 -759 748 -742 743 -761 764 -782 858 -39 182 67 362 246 415 93 28 163 21
257 -26 31 -15 216 -194 615 -595 315 -316 582 -584 595 -596 l23 -22 1117
1117 c904 904 1127 1122 1170 1143 47 24 150 47 177 40 6 -2 28 -6 50 -9z"/>
</g>
</svg>
