<?xml version="1.0" standalone="no"?>
<!DOCTYPE svg PUBLIC "-//W3C//DTD SVG 20010904//EN"
 "http://www.w3.org/TR/2001/REC-SVG-20010904/DTD/svg10.dtd">
<svg version="1.0" xmlns="http://www.w3.org/2000/svg"
 width="800.000000pt" height="800.000000pt" viewBox="0 0 800.000000 800.000000"
 preserveAspectRatio="xMidYMid meet">
<metadata>
Created by potrace 1.14, written by Peter Selinger 2001-2017
</metadata>
<g transform="translate(0.000000,800.000000) scale(0.100000,-0.100000)"
fill="#000000" stroke="none">
<path d="M3778 7995 c-2 -1 -50 -5 -108 -9 -58 -4 -114 -9 -125 -11 -11 -3
-42 -7 -70 -9 -27 -3 -86 -12 -130 -20 -44 -9 -93 -18 -110 -20 -196 -33 -506
-125 -738 -220 -117 -47 -291 -129 -295 -138 -2 -5 -10 -8 -17 -8 -16 0 -248
-131 -253 -142 -2 -4 -8 -8 -13 -8 -6 0 -37 -18 -70 -40 -33 -22 -62 -40 -64
-40 -11 0 -286 -205 -341 -255 -6 -5 -36 -30 -65 -55 -123 -102 -380 -370
-491 -510 -23 -30 -45 -57 -49 -60 -22 -19 -200 -282 -273 -404 -238 -399
-391 -795 -485 -1256 -63 -310 -75 -442 -75 -790 0 -337 14 -484 68 -761 9
-41 18 -85 21 -99 3 -14 10 -46 15 -71 24 -123 109 -386 186 -579 107 -269
334 -667 509 -895 9 -11 26 -33 38 -49 109 -146 388 -440 527 -558 30 -26 72
-61 93 -79 21 -18 70 -57 110 -86 40 -30 79 -60 89 -68 24 -20 276 -185 282
-185 3 0 36 -19 73 -42 89 -54 380 -195 511 -248 350 -138 770 -237 1137 -267
176 -14 684 -7 795 11 14 3 48 7 75 11 47 6 241 38 295 50 86 17 280 70 280
76 0 4 -26 17 -57 30 -132 52 -322 157 -441 243 -154 110 -331 282 -443 426
-23 30 -45 59 -49 63 -4 5 -26 -1 -48 -12 -52 -26 -84 -26 -138 -1 -45 22
-140 118 -189 191 -96 143 -170 290 -250 494 -23 61 -46 119 -50 130 -4 11 -9
25 -11 30 -1 6 -21 69 -43 140 -35 111 -94 332 -107 400 -2 11 -10 52 -18 90
-22 101 -55 283 -61 335 -3 25 -7 52 -10 60 -2 8 -7 40 -10 70 -3 30 -8 66
-10 80 -3 14 -7 45 -9 70 -3 25 -8 70 -11 100 -12 115 -15 147 -20 225 -3 44
-8 113 -10 153 -3 39 -2 73 2 73 4 1 260 2 568 3 l560 2 65 68 c232 244 591
465 905 556 114 33 144 40 185 46 25 3 48 8 51 10 3 1 28 6 55 10 27 3 72 10
99 14 53 9 442 6 485 -3 14 -3 43 -8 65 -11 98 -13 282 -59 370 -93 22 -8 48
-17 57 -18 21 -5 195 -82 223 -99 11 -7 46 -27 79 -45 77 -43 186 -114 211
-139 12 -10 26 -21 32 -23 6 -2 42 -31 79 -64 265 -229 462 -504 591 -823 l30
-73 41 168 c23 92 44 182 46 198 3 17 10 62 16 100 6 39 13 81 15 95 10 65 18
138 31 285 8 97 8 452 0 561 -7 86 -9 109 -22 219 -6 55 -21 156 -29 195 -3
14 -7 40 -10 58 -7 52 -54 260 -76 337 -93 322 -214 608 -376 893 -71 126
-220 355 -234 360 -5 2 -9 8 -9 14 0 5 -20 35 -45 66 -26 31 -56 70 -68 86
-86 112 -345 384 -457 481 -194 167 -290 240 -457 351 -78 52 -144 94 -147 94
-3 0 -36 19 -73 42 -100 61 -363 188 -510 246 -104 41 -311 114 -333 117 -3 1
-30 8 -60 18 -52 15 -302 72 -365 82 -16 3 -52 10 -80 15 -51 10 -189 27 -280
36 -55 5 -572 13 -577 9z m290 -905 c149 -91 305 -343 461 -742 26 -66 107
-317 116 -358 2 -8 11 -42 20 -75 16 -59 42 -165 51 -215 3 -14 10 -45 15 -70
12 -52 55 -288 63 -345 4 -22 9 -53 12 -70 3 -16 7 -46 8 -65 2 -19 9 -75 16
-125 18 -141 26 -229 34 -345 3 -41 8 -110 11 -152 3 -43 2 -79 -2 -79 -4 -1
-401 -2 -881 -3 l-872 -1 5 80 c13 201 16 234 21 295 4 36 8 73 10 83 2 10 6
53 10 95 3 42 8 79 9 82 2 3 6 33 10 65 3 33 8 67 10 75 3 8 7 35 10 60 3 25
7 56 10 70 3 14 12 61 20 105 37 204 71 352 115 510 40 143 93 314 109 350 4
11 23 58 41 105 91 235 246 506 341 597 100 94 160 113 227 73z m-1397 -352
c-94 -229 -191 -557 -256 -863 -46 -215 -98 -511 -110 -625 -3 -30 -8 -66 -10
-80 -10 -72 -15 -111 -20 -165 -3 -33 -7 -80 -10 -105 -3 -25 -7 -65 -9 -90
-5 -45 -18 -266 -20 -327 0 -18 -3 -34 -6 -34 -17 -4 -1302 -3 -1305 1 -4 7
19 134 45 250 12 52 23 104 26 114 2 11 29 94 60 185 96 280 187 465 350 712
56 86 109 162 116 170 7 8 36 43 63 79 162 212 435 460 695 631 141 93 233
147 341 199 46 22 84 40 85 40 1 0 -15 -42 -35 -92z m2879 -39 c112 -63 369
-242 430 -299 9 -8 45 -40 80 -70 145 -126 276 -266 407 -435 50 -66 244 -355
238 -355 -3 0 10 -24 27 -52 95 -161 258 -579 284 -726 3 -15 9 -43 14 -62 5
-19 12 -48 14 -65 3 -16 12 -64 20 -105 8 -41 13 -77 11 -80 -3 -4 -1287 -6
-1305 -1 -3 0 -5 18 -6 39 -1 58 -14 262 -19 315 -3 26 -7 68 -10 95 -3 26 -7
71 -10 100 -11 119 -17 163 -36 297 -23 161 -28 194 -34 215 -2 8 -6 33 -10
55 -3 22 -7 47 -10 55 -2 8 -6 33 -10 55 -3 22 -12 69 -21 105 -8 36 -17 81
-20 100 -5 27 -66 277 -90 365 -3 11 -6 25 -8 30 -1 6 -11 37 -21 70 -10 33
-19 65 -21 70 -6 27 -71 211 -105 299 -22 54 -39 102 -39 107 0 9 139 -59 250
-122z m-3319 -3149 c2 -7 6 -68 13 -200 4 -63 9 -131 11 -150 2 -19 7 -64 10
-100 13 -143 61 -526 70 -560 3 -8 7 -33 10 -55 3 -22 10 -60 15 -85 5 -25 11
-58 14 -75 2 -16 13 -70 25 -120 11 -49 23 -106 26 -125 9 -52 90 -363 120
-460 15 -47 27 -89 29 -95 1 -5 4 -14 7 -20 7 -11 32 -83 35 -100 1 -5 22 -61
46 -122 25 -62 43 -113 41 -113 -2 0 -43 20 -92 45 -247 124 -494 292 -695
475 -116 106 -258 253 -316 329 -11 14 -41 53 -66 86 -55 70 -245 355 -238
355 3 0 -3 12 -13 28 -18 25 -99 189 -136 272 -19 41 -98 250 -101 265 -4 20
-17 60 -26 80 -10 23 -66 251 -74 305 -3 19 -10 57 -15 85 -5 27 -8 52 -6 55
4 7 1305 7 1306 0z"/>
<path d="M6348 3595 c-2 -2 -21 -6 -43 -9 -120 -19 -212 -53 -321 -122 -93
-57 -455 -413 -480 -471 -36 -86 -10 -194 59 -247 43 -33 104 -54 142 -49 83
10 114 32 301 218 124 123 201 191 237 210 49 25 187 58 211 49 6 -2 31 -6 55
-8 103 -12 248 -115 298 -213 67 -128 65 -295 -3 -418 -16 -28 -103 -125 -204
-227 -137 -140 -180 -189 -196 -229 -35 -84 -18 -169 46 -226 70 -62 159 -75
240 -35 74 36 470 446 470 487 0 7 3 15 8 17 13 6 81 161 92 211 21 95 24 123
24 212 0 150 -30 270 -96 395 -41 76 -57 99 -131 184 -68 79 -221 186 -302
212 -145 47 -187 56 -292 58 -62 2 -114 2 -115 1z"/>
<path d="M6090 2658 c-19 -5 -48 -20 -65 -32 -55 -42 -657 -651 -672 -680 -21
-41 -24 -120 -5 -167 43 -110 174 -166 280 -119 65 29 684 649 713 715 69 157
-82 328 -251 283z"/>
<path d="M5014 2501 c-43 -19 -342 -310 -427 -414 -170 -209 -220 -458 -153
-763 6 -31 77 -184 101 -219 62 -92 127 -160 209 -220 23 -16 43 -32 46 -35
21 -22 139 -76 218 -99 260 -77 529 -30 747 131 86 63 402 382 426 431 38 73
25 168 -31 227 -69 73 -167 91 -251 46 -24 -12 -118 -97 -209 -188 -174 -175
-247 -231 -327 -249 -114 -26 -248 -4 -342 56 -46 28 -124 116 -148 165 -68
139 -51 331 39 444 13 16 101 108 196 203 147 149 175 182 188 224 56 171
-120 334 -282 260z"/>
</g>
</svg>
