<?xml version="1.0" standalone="no"?><!DOCTYPE svg PUBLIC "-//W3C//DTD SVG 1.1//EN" "http://www.w3.org/Graphics/SVG/1.1/DTD/svg11.dtd"><svg t="1723650442075" class="icon" viewBox="0 0 1024 1024" version="1.1" xmlns="http://www.w3.org/2000/svg" p-id="5992" xmlns:xlink="http://www.w3.org/1999/xlink" width="800" height="800"><path d="M526.336 904.192c-5.12 4.096-10.24 6.144-14.336 6.144-30.72 0-101.888-119.296-112.64-341.504h145.408c49.664-56.32 122.368-91.648 203.264-91.648 117.248 0 217.6 74.752 254.976 179.2 13.312-45.568 20.48-94.208 20.48-144.384C1024 229.376 794.624 0 512 0S0 229.376 0 512s229.376 512 512 512c50.176 0 98.304-7.168 144.384-20.48-53.248-19.456-98.304-54.272-130.048-99.328zM906.24 455.168h-167.936c-5.12-112.64-25.6-222.208-60.928-305.664 123.392 56.32 209.408 171.52 228.864 305.664z m-394.24-341.504c30.72 0 101.888 119.296 112.64 341.504H399.36c10.752-222.208 81.92-341.504 112.64-341.504z m-394.24 455.168h167.936c5.12 112.64 25.6 222.208 60.928 305.664-123.392-56.32-209.408-171.52-228.864-305.664z m167.936-113.664H117.76c19.456-134.144 105.472-249.344 228.864-305.664-35.328 83.456-55.808 193.024-60.928 305.664z" p-id="5993" fill="#13227a"></path><path d="M748.032 594.432l-38.4 38.4c-10.24 10.752-10.24 28.16 0.512 38.4s27.136 10.24 37.888 0l38.4-38.4c21.504-20.992 56.32-19.968 76.8 2.048 19.968 20.992 19.968 54.272 0 75.264l-38.4 38.4c-10.24 10.752-10.24 28.16 0.512 38.4s27.136 10.24 37.888 0l38.4-38.4c41.984-43.008 41.472-111.616-1.536-153.6-41.984-41.984-109.568-41.984-152.064-0.512z m0 230.912l-38.4 38.4c-21.504 20.992-56.32 19.968-76.8-2.048-19.968-20.992-19.968-54.272 0-75.264l38.4-38.4c10.752-10.24 11.264-27.648 0.512-38.4-10.24-10.752-27.648-11.264-38.4-0.512l-0.512 0.512-38.4 38.4c-41.984 43.008-41.472 111.616 1.536 153.6 42.496 41.472 110.08 41.472 152.064 0l38.4-38.4c10.24-10.752 10.24-28.16-0.512-38.4-10.24-9.728-27.136-9.728-37.888 0.512z" fill="#13227a" p-id="5994"></path><path d="M690.688 805.888c10.752 10.752 27.648 10.752 38.4 0l76.8-76.8c10.752-10.752 10.752-27.648 0-38.4-10.752-10.752-27.648-10.752-38.4 0l-76.8 76.8c-10.752 10.752-10.752 27.648 0 38.4z" fill="#13227a" p-id="5995"></path></svg>