<?xml version="1.0" standalone="no"?><!DOCTYPE svg PUBLIC "-//W3C//DTD SVG 1.1//EN" "http://www.w3.org/Graphics/SVG/1.1/DTD/svg11.dtd"><svg t="1723695462588" class="icon" viewBox="0 0 1024 1024" version="1.1" xmlns="http://www.w3.org/2000/svg" p-id="2082" width="16" height="16" xmlns:xlink="http://www.w3.org/1999/xlink"><path d="M908.215261 602.359783c-10.049022 0-19.283887-6.536517-22.284637-16.632062-3.675337-12.3054 3.349674-25.262125 15.655074-28.937462 60.061516-17.88819 54.804389-41.173076 50.198587-61.68983-0.581541-2.558779-1.116558-4.884941-1.465482-6.955226-3.419459-19.051271-9.211604-50.942959-147.525227-36.241612-46.94196 5.001249-84.625792-5.326912-111.888417-30.682084-43.336408-40.335658-41.708094-103.3514-41.615047-106.003226l0.395448-3.58229c8.606801-45.197338 24.005997-175.555485-7.72286-235.291338-16.74837-31.519502-57.991231-36.35792-88.184821-22.773131-12.863679 5.768883-41.242861 23.238364-27.309148 60.898935 35.35767 95.419186 7.071534 200.654778-81.811136 304.378365-81.88092 95.46571-195.002203 88.533745-199.747575 88.231344L133.83576 507.103428c-12.863679 0-23.261625-10.421208-23.261625-23.261625s10.397946-23.261625 23.261625-23.261625l112.749097 0c5.326912 0.232616 96.512483 5.187342 162.761591-72.041253 53.827401-62.829649 110.306626-158.59776 73.506735-257.924899-18.283637-49.38443 2.558779-97.419686 51.873424-119.51823 49.803139-22.238114 118.820381-12.119307 148.29286 43.406192 43.731855 82.253106 16.678585 242.130256 12.770632 263.670521 0.116308 7.769383 2.023761 46.104541 27.030008 69.180073 16.934463 15.60855 42.103541 21.749619 75.065264 18.260376 159.388655-16.911201 189.489198 25.704096 198.212308 74.297631l1.070035 4.977988c5.303651 23.587288 19.400195 86.207583-82.322891 116.494219C912.658231 602.03412 910.401854 602.359783 908.215261 602.359783z" fill="#666666" p-id="2083"></path><path d="M857.435133 888.663865c-31.961473 0-58.409941-15.329411-59.875423-16.213353-11.072534-6.536517-14.724609-20.795893-8.211354-31.845165 6.513255-11.072534 20.772631-14.771132 31.868426-8.211354 7.862429 4.512755 32.77563 14.654824 51.943209 6.862179 14.259376-5.815406 24.982985-21.307649 31.891688-45.988233 14.073283-50.314895-37.288385-69.27312-43.150315-71.250358-12.119307-4.094046-18.74887-17.236864-14.701347-29.379433 4.001-12.119307 17.004248-18.818655 29.216601-14.817655 34.63656 11.281888 94.535245 52.548011 73.436951 127.9622-11.02601 39.428455-31.05427 65.248858-59.526499 76.693578C879.254538 886.965766 868.042434 888.663865 857.435133 888.663865z" fill="#666666" p-id="2084"></path><path d="M913.914359 728.833239c-23.122055 0-43.964472-4.72211-50.361418-6.3039-12.444969-3.117058-19.981736-15.724859-16.911201-28.169828 3.117058-12.491493 15.864428-20.074782 28.169828-16.957725 20.074782 4.954726 55.432453 8.141569 67.668068-0.767634 1.535267-1.116558 2.837918-2.395947 3.117058-6.44347 2.0005-28.681584-2.651825-49.337907-13.421958-59.712592-10.095545-9.676836-23.866427-8.350923-24.354922-8.281139-12.817155 1.325913-24.215352-7.629813-25.773881-20.237614s7.048272-24.122305 19.632812-25.890189c3.535767-0.535017 35.753118-4.303401 61.852661 20.028259 21.958974 20.446968 31.542764 53.176075 28.518752 97.280116-1.186343 17.050771-8.862679 31.193839-22.214852 40.893937C954.343064 725.506826 933.314554 728.833239 913.914359 728.833239z" fill="#666666" p-id="2085"></path><path d="M804.654506 1023.744122c-11.654074 0-22.354422-1.512006-31.05427-3.745122l-294.236296-11.16558c-6.141069-0.604802-114.865905-12.444969-180.742827-54.362418-21.796143-13.910452-66.318893-26.33216-154.550237-6.838918-3.372936 0.744372-5.675837 1.232866-6.792395 1.395698-12.700847 2.023761-24.541015-6.838918-26.471729-19.539765-1.907453-12.700847 6.862179-24.541015 19.563027-26.448468l3.652075-0.814157c83.29988-18.423207 147.036732-14.050022 189.558983 13.02651 56.595534 36.032257 158.062743 47.128053 159.086254 47.244361l300.912383 12.072783c6.141069 1.72136 61.643307 15.352673 82.741601-39.35867 6.001499-15.631812 2.837918-23.959474-0.046523-28.867677-11.909952-20.144567-51.222099-29.681834-64.062516-31.449717-12.700847-1.744622-21.633311-13.445219-19.911951-26.169328 1.72136-12.724109 13.421958-21.703096 26.076282-19.958474 7.327412 0.976988 72.297131 10.700348 97.861657 53.757616 8.350923 14.073283 15.74812 37.521001 3.489244 69.389428C887.907862 1008.484496 841.570705 1023.744122 804.654506 1023.744122z" fill="#666666" p-id="2086"></path><path d="M124.740465 950.214125c-15.841167 0-26.843915-6.001499-33.752618-11.747121-22.354422-18.562777-22.703346-51.291883-22.680085-54.943959L68.307762 522.758502c0-43.010745 38.428205-60.712842 64.27187-62.131801 12.328661-0.628064 23.796643 9.118557 24.494491 21.958974 0.697849 12.747371-9.025511 23.680334-21.749619 24.494491-4.838418 0.372186-20.493492 2.58204-20.493492 15.701597l0 360.973899c0.046523 5.838668 2.163331 15.910952 5.885191 18.958224 1.884192 1.558529 6.257377 0.976988 8.630063 0.488494 12.514754-2.535517 24.796892 5.699098 27.33241 18.330161 2.465732 12.607801-5.72236 24.843416-18.330161 27.309148C133.463574 949.795416 128.904296 950.214125 124.740465 950.214125z" fill="#666666" p-id="2087"></path></svg>